<svg width="512" height="512" viewBox="0 0 512 512" fill="none" xmlns="http://www.w3.org/2000/svg">
<g clip-path="url(#clip0_16_5)">
<path d="M149.333 512C146.526 512.016 143.743 511.478 141.143 510.416C138.544 509.355 136.18 507.791 134.187 505.813C132.187 503.83 130.6 501.471 129.517 498.871C128.434 496.271 127.876 493.483 127.876 490.667C127.876 487.85 128.434 485.062 129.517 482.462C130.6 479.863 132.187 477.503 134.187 475.52L308.48 301.227C320.465 289.227 327.197 272.96 327.197 256C327.197 239.04 320.465 222.773 308.48 210.773L134.187 36.48C130.17 32.4629 127.913 27.0144 127.913 21.3333C127.913 15.6522 130.17 10.2038 134.187 6.18667C138.204 2.16953 143.652 -0.0872803 149.333 -0.0872803C155.014 -0.0872803 160.463 2.16953 164.48 6.18667L338.773 180.48C348.707 190.388 356.588 202.159 361.965 215.118C367.343 228.077 370.111 241.97 370.111 256C370.111 270.03 367.343 283.923 361.965 296.882C356.588 309.841 348.707 321.612 338.773 331.52L164.48 505.813C162.487 507.791 160.123 509.355 157.523 510.416C154.924 511.478 152.141 512.016 149.333 512Z" fill="white"/>
</g>
<defs>
<clipPath id="clip0_16_5">
<rect width="512" height="512" fill="white"/>
</clipPath>
</defs>
</svg>
