<svg width="512" height="512" viewBox="0 0 512 512" fill="none" xmlns="http://www.w3.org/2000/svg">
<g clip-path="url(#clip0_16_7)">
<path d="M512 490.667C512 496.325 509.752 501.751 505.752 505.752C501.751 509.752 496.325 512 490.667 512H21.3333C15.6754 512 10.2492 509.752 6.24837 505.752C2.2476 501.751 -1.38357e-05 496.325 -1.38357e-05 490.667C-1.38357e-05 485.009 2.2476 479.582 6.24837 475.582C10.2492 471.581 15.6754 469.333 21.3333 469.333H490.667C496.325 469.333 501.751 471.581 505.752 475.582C509.752 479.582 512 485.009 512 490.667ZM6.20799 182.443C1.61113 173.916 -0.518528 164.277 0.0580219 154.608C0.634572 144.939 3.89451 135.621 9.47199 127.701C18.5868 114.328 30.7935 103.351 45.056 95.7013L205.077 12.416C220.806 4.23742 238.272 -0.0324707 256 -0.0324707C273.728 -0.0324707 291.194 4.23742 306.923 12.416L466.923 95.7653C481.185 103.415 493.392 114.392 502.507 127.765C508.084 135.685 511.344 145.003 511.921 154.672C512.497 164.341 510.368 173.98 505.771 182.507C500.822 191.868 493.399 199.693 484.311 205.128C475.223 210.564 464.818 213.402 454.229 213.333H448V384H469.333C474.991 384 480.418 386.248 484.418 390.248C488.419 394.249 490.667 399.675 490.667 405.333C490.667 410.991 488.419 416.418 484.418 420.418C480.418 424.419 474.991 426.667 469.333 426.667H42.6667C37.0087 426.667 31.5825 424.419 27.5817 420.418C23.5809 416.418 21.3333 410.991 21.3333 405.333C21.3333 399.675 23.5809 394.249 27.5817 390.248C31.5825 386.248 37.0087 384 42.6667 384H64V213.333H57.7707C47.1714 213.4 36.7575 210.554 27.6648 205.106C18.5722 199.659 11.15 191.819 6.20799 182.443ZM106.667 384H170.667V213.333H106.667V384ZM213.333 213.333V384H298.667V213.333H213.333ZM405.333 213.333H341.333V384H405.333V213.333ZM44.0107 162.667C45.3492 165.134 47.3411 167.186 49.7681 168.597C52.1952 170.008 54.9638 170.724 57.7707 170.667H454.229C457.036 170.724 459.805 170.008 462.232 168.597C464.659 167.186 466.651 165.134 467.989 162.667C468.964 161.036 469.436 159.154 469.345 157.256C469.254 155.358 468.604 153.53 467.477 152C462.308 144.318 455.364 137.995 447.232 133.568L287.232 50.2186C277.59 45.2143 266.885 42.602 256.021 42.602C245.158 42.602 234.453 45.2143 224.811 50.2186L64.8107 133.568C56.6823 138.01 49.7393 144.338 44.5653 152.021C43.4365 153.545 42.7819 155.367 42.6833 157.26C42.5846 159.154 43.0463 161.034 44.0107 162.667Z" fill="white"/>
</g>
<defs>
<clipPath id="clip0_16_7">
<rect width="512" height="512" fill="white"/>
</clipPath>
</defs>
</svg>
