<svg width="600" height="600" viewBox="0 0 600 600" fill="none" xmlns="http://www.w3.org/2000/svg">
<path d="M158.747 259.455C164.761 262.93 166.82 270.612 163.345 276.616C159.874 282.632 152.195 284.689 146.193 281.211C140.179 277.737 138.121 270.055 141.595 264.051C145.067 258.035 152.745 255.978 158.747 259.455ZM346.559 288.281L341.543 296.974C345.225 312.025 343.407 328.434 335.189 342.888L307.205 392.114C298.872 406.769 285.33 417.265 269.064 421.676L268.858 421.731C252.665 426.07 235.751 423.838 221.23 415.45L107.364 350.318C97.3686 344.554 90.6559 334.737 88.9065 323.356L75.6963 236.937C74.8321 231.238 77.9335 225.685 83.2389 223.457L163.739 189.634C174.641 185.1 187.05 185.898 197.171 191.745L311.945 257.402C317.898 260.841 323.076 265.124 327.426 270.007C333.484 253.217 326.804 233.818 310.807 224.577L194.649 159.382C191.126 157.348 186.949 157.088 183.377 158.605L102.876 192.427C96.4578 195.11 89.1109 192.097 86.4257 185.714C83.7493 179.316 86.7562 171.955 93.1352 169.27L173.644 135.432C184.39 130.849 196.936 131.675 207.079 137.555L323.214 202.756C353.143 220.036 363.559 258.374 346.55 288.296L346.559 288.281ZM299.425 279.188L184.651 213.531C181.221 211.55 177.09 211.317 173.444 212.801L101.991 242.834L113.721 319.556C114.306 323.34 116.536 326.619 119.856 328.526L233.722 393.659C242.478 398.727 252.623 400.054 262.339 397.45L262.46 397.418C272.231 394.774 280.358 388.473 285.345 379.67L313.329 330.445C323.534 312.491 317.293 289.489 299.407 279.167L299.425 279.188Z" fill="white"/>
<path d="M591.025 291.396L565.8 226.496C559.183 209.401 546.457 194.53 529.43 183.997C512.403 173.463 491.94 167.802 470.95 167.818H422.5C416.698 143.605 401.345 121.849 379.031 106.216C356.717 90.5838 328.805 82.0312 300 82H125C91.8601 82.0341 60.0889 93.3469 36.6555 113.457C13.222 133.567 0.0396964 160.833 0 189.273L0 478.909C0.213878 493.743 5.51816 508.193 15.2497 520.454C24.9813 532.715 38.7083 542.242 54.7147 547.844C70.7211 553.446 88.2966 554.875 105.244 551.952C122.192 549.028 137.759 541.883 150 531.408C162.241 541.883 177.808 549.028 194.756 551.952C211.703 554.875 229.279 553.446 245.285 547.844C261.292 542.242 275.019 532.715 284.75 520.454C294.482 508.193 299.786 493.743 300 478.909V468.182H375V478.909C375 498.824 384.219 517.924 400.628 532.006C417.038 546.089 439.294 554 462.5 554C485.706 554 507.962 546.089 524.372 532.006C540.781 517.924 550 498.824 550 478.909V456.661C565.198 449.131 577.819 438.301 586.596 425.259C595.372 412.218 599.995 397.424 600 382.364V338.897C600.003 322.752 596.972 306.713 591.025 291.396ZM518.375 240.077L540.3 296.545H425V210.727H470.95C481.444 210.73 491.671 213.565 500.183 218.833C508.694 224.101 515.059 231.533 518.375 240.077V240.077ZM50 189.273C50 172.202 57.9018 155.831 71.967 143.761C86.0322 131.69 105.109 124.909 125 124.909H300C319.891 124.909 338.968 131.69 353.033 143.761C367.098 155.831 375 172.202 375 189.273V425.273H50V189.273ZM87.5 511.091C77.5544 511.091 68.0161 507.7 60.9835 501.665C53.9509 495.63 50 487.444 50 478.909V468.182H125V478.909C125 487.444 121.049 495.63 114.017 501.665C106.984 507.7 97.4456 511.091 87.5 511.091ZM250 478.909C250 487.444 246.049 495.63 239.017 501.665C231.984 507.7 222.446 511.091 212.5 511.091C202.554 511.091 193.016 507.7 185.983 501.665C178.951 495.63 175 487.444 175 478.909V468.182H250V478.909ZM500 478.909C500 487.444 496.049 495.63 489.016 501.665C481.984 507.7 472.446 511.091 462.5 511.091C452.554 511.091 443.016 507.7 435.984 501.665C428.951 495.63 425 487.444 425 478.909V468.182H500V478.909ZM500 425.273H425V339.455H550V382.364C550 393.744 544.732 404.658 535.355 412.705C525.979 420.752 513.261 425.273 500 425.273Z" fill="white"/>
</svg>
