<svg width="512" height="512" viewBox="0 0 512 512" fill="none" xmlns="http://www.w3.org/2000/svg">
<g clip-path="url(#clip0_16_23)">
<path d="M490.667 469.333H106.667C89.6928 469.333 73.4142 462.591 61.4118 450.588C49.4095 438.586 42.6667 422.307 42.6667 405.333V21.3333C42.6667 15.6754 40.4191 10.2492 36.4183 6.24839C32.4175 2.24761 26.9913 0 21.3333 0C15.6754 0 10.2492 2.24761 6.24839 6.24839C2.24761 10.2492 0 15.6754 0 21.3333L0 405.333C0.0338743 433.613 11.2828 460.724 31.2794 480.721C51.2759 500.717 78.3873 511.966 106.667 512H490.667C496.325 512 501.751 509.752 505.752 505.752C509.752 501.751 512 496.325 512 490.667C512 485.009 509.752 479.582 505.752 475.582C501.751 471.581 496.325 469.333 490.667 469.333Z" fill="white"/>
<path d="M128 426.667C133.658 426.667 139.084 424.419 143.085 420.418C147.086 416.417 149.333 410.991 149.333 405.333V256C149.333 250.342 147.086 244.916 143.085 240.915C139.084 236.914 133.658 234.667 128 234.667C122.342 234.667 116.916 236.914 112.915 240.915C108.914 244.916 106.667 250.342 106.667 256V405.333C106.667 410.991 108.914 416.417 112.915 420.418C116.916 424.419 122.342 426.667 128 426.667Z" fill="white"/>
<path d="M213.333 213.333V405.333C213.333 410.991 215.581 416.418 219.582 420.418C223.583 424.419 229.009 426.667 234.667 426.667C240.325 426.667 245.751 424.419 249.752 420.418C253.752 416.418 256 410.991 256 405.333V213.333C256 207.675 253.752 202.249 249.752 198.248C245.751 194.248 240.325 192 234.667 192C229.009 192 223.583 194.248 219.582 198.248C215.581 202.249 213.333 207.675 213.333 213.333Z" fill="white"/>
<path d="M320 277.333V405.333C320 410.991 322.248 416.418 326.248 420.418C330.249 424.419 335.675 426.667 341.333 426.667C346.991 426.667 352.418 424.419 356.418 420.418C360.419 416.418 362.667 410.991 362.667 405.333V277.333C362.667 271.675 360.419 266.249 356.418 262.248C352.418 258.248 346.991 256 341.333 256C335.675 256 330.249 258.248 326.248 262.248C322.248 266.249 320 271.675 320 277.333Z" fill="white"/>
<path d="M426.667 192V405.333C426.667 410.991 428.914 416.417 432.915 420.418C436.916 424.419 442.342 426.667 448 426.667C453.658 426.667 459.084 424.419 463.085 420.418C467.086 416.417 469.333 410.991 469.333 405.333V192C469.333 186.342 467.086 180.916 463.085 176.915C459.084 172.914 453.658 170.667 448 170.667C442.342 170.667 436.916 172.914 432.915 176.915C428.914 180.916 426.667 186.342 426.667 192Z" fill="white"/>
<path d="M128 192C133.658 191.999 139.083 189.75 143.083 185.749L219.584 109.248C223.65 105.374 229.051 103.214 234.667 103.214C240.283 103.214 245.683 105.374 249.749 109.248L296.085 155.584C308.087 167.582 324.363 174.322 341.333 174.322C358.304 174.322 374.58 167.582 386.581 155.584L505.749 36.4159C509.635 32.3924 511.786 27.0036 511.737 21.41C511.689 15.8165 509.445 10.4658 505.49 6.51047C501.534 2.5551 496.183 0.311498 490.59 0.262891C484.996 0.214285 479.608 2.36457 475.584 6.2506L356.416 125.397C352.415 129.397 346.99 131.643 341.333 131.643C335.677 131.643 330.251 129.397 326.251 125.397L279.915 79.0826C267.913 67.0845 251.637 60.3443 234.667 60.3443C217.696 60.3443 201.42 67.0845 189.419 79.0826L112.917 155.584C109.935 158.567 107.904 162.368 107.081 166.506C106.258 170.644 106.681 174.932 108.295 178.83C109.909 182.727 112.643 186.059 116.15 188.403C119.658 190.747 123.781 191.999 128 192Z" fill="white"/>
</g>
<defs>
<clipPath id="clip0_16_23">
<rect width="512" height="512" fill="white"/>
</clipPath>
</defs>
</svg>
