<svg width="512" height="512" viewBox="0 0 512 512" fill="none" xmlns="http://www.w3.org/2000/svg">
<path d="M505.749 6.25063C501.749 2.25125 496.324 0.0045166 490.667 0.0045166C485.01 0.0045166 479.585 2.25125 475.584 6.25063L256 225.835L36.4161 6.25063C32.4155 2.25125 26.9903 0.0045166 21.3334 0.0045166C15.6766 0.0045166 10.2513 2.25125 6.25075 6.25063C2.25137 10.2512 0.00463867 15.6765 0.00463867 21.3333C0.00463867 26.9901 2.25137 32.4154 6.25075 36.416L225.835 256L6.25075 475.584C2.25137 479.585 0.00463867 485.01 0.00463867 490.667C0.00463867 496.323 2.25137 501.749 6.25075 505.749C10.2513 509.749 15.6766 511.995 21.3334 511.995C26.9903 511.995 32.4155 509.749 36.4161 505.749L256 286.165L475.584 505.749C479.585 509.749 485.01 511.995 490.667 511.995C496.324 511.995 501.749 509.749 505.749 505.749C509.749 501.749 511.996 496.323 511.996 490.667C511.996 485.01 509.749 479.585 505.749 475.584L286.165 256L505.749 36.416C509.749 32.4154 511.996 26.9901 511.996 21.3333C511.996 15.6765 509.749 10.2512 505.749 6.25063Z" fill="white"/>
</svg>
