<svg width="512" height="512" viewBox="0 0 512 512" fill="none" xmlns="http://www.w3.org/2000/svg">
<g clip-path="url(#clip0_16_37)">
<path d="M256 0C205.368 0 155.873 15.0141 113.774 43.1438C71.6751 71.2734 38.863 111.255 19.487 158.033C0.110921 204.811 -4.95873 256.284 4.91908 305.943C14.7969 355.602 39.1785 401.217 74.9808 437.019C110.783 472.822 156.398 497.203 206.057 507.081C255.716 516.959 307.189 511.889 353.967 492.513C400.745 473.137 440.727 440.325 468.856 398.226C496.986 356.127 512 306.632 512 256C511.927 188.127 484.932 123.055 436.938 75.0618C388.945 27.0683 323.873 0.0734097 256 0V0ZM256 469.333C213.807 469.333 172.561 456.822 137.478 433.38C102.396 409.939 75.0525 376.621 58.9058 337.639C42.7591 298.658 38.5344 255.763 46.7659 214.381C54.9974 172.998 75.3155 134.986 105.151 105.151C134.986 75.3154 172.998 54.9973 214.381 46.7658C255.763 38.5343 298.658 42.759 337.639 58.9057C376.621 75.0524 409.939 102.396 433.38 137.478C456.822 172.561 469.333 213.807 469.333 256C469.271 312.56 446.775 366.787 406.781 406.781C366.787 446.775 312.561 469.271 256 469.333Z" fill="white"/>
<path d="M271.296 108.011C258.994 105.769 246.349 106.259 234.257 109.445C222.165 112.631 210.921 118.436 201.32 126.449C191.72 134.462 183.998 144.487 178.701 155.814C173.404 167.142 170.661 179.495 170.667 192C170.667 197.658 172.914 203.084 176.915 207.085C180.916 211.086 186.342 213.333 192 213.333C197.658 213.333 203.084 211.086 207.085 207.085C211.086 203.084 213.333 197.658 213.333 192C213.328 185.723 214.708 179.523 217.374 173.84C220.04 168.158 223.927 163.134 228.758 159.126C233.589 155.118 239.244 152.226 245.321 150.655C251.398 149.084 257.747 148.873 263.915 150.037C272.342 151.673 280.091 155.784 286.171 161.845C292.251 167.906 296.386 175.642 298.048 184.064C299.727 192.905 298.568 202.05 294.736 210.192C290.905 218.334 284.597 225.056 276.715 229.397C263.662 236.959 252.877 247.883 245.481 261.03C238.086 274.178 234.351 289.068 234.667 304.149V320C234.667 325.658 236.914 331.084 240.915 335.085C244.916 339.086 250.342 341.333 256 341.333C261.658 341.333 267.084 339.086 271.085 335.085C275.086 331.084 277.333 325.658 277.333 320V304.149C277.066 296.726 278.759 289.362 282.242 282.801C285.724 276.239 290.875 270.711 297.173 266.773C312.63 258.284 325.076 245.215 332.802 229.363C340.527 213.511 343.152 195.656 340.315 178.251C337.479 160.847 329.319 144.749 316.96 132.171C304.601 119.592 288.648 111.152 271.296 108.011Z" fill="white"/>
<path d="M277.333 384C277.333 372.218 267.782 362.667 256 362.667C244.218 362.667 234.667 372.218 234.667 384C234.667 395.782 244.218 405.333 256 405.333C267.782 405.333 277.333 395.782 277.333 384Z" fill="white"/>
</g>
<defs>
<clipPath id="clip0_16_37">
<rect width="512" height="512" fill="white"/>
</clipPath>
</defs>
</svg>
