<svg width="50" height="50" viewBox="0 0 50 50" fill="none" xmlns="http://www.w3.org/2000/svg">
<g clip-path="url(#clip0_3_59)">
<path d="M14.5833 12.5H47.9167C48.4692 12.5 48.9991 12.2805 49.3898 11.8898C49.7805 11.4991 50 10.9692 50 10.4167C50 9.86413 49.7805 9.33422 49.3898 8.94352C48.9991 8.55282 48.4692 8.33333 47.9167 8.33333H14.5833C14.0308 8.33333 13.5009 8.55282 13.1102 8.94352C12.7195 9.33422 12.5 9.86413 12.5 10.4167C12.5 10.9692 12.7195 11.4991 13.1102 11.8898C13.5009 12.2805 14.0308 12.5 14.5833 12.5Z" fill="white"/>
<path d="M47.9167 22.9167H14.5833C14.0308 22.9167 13.5009 23.1362 13.1102 23.5269C12.7195 23.9176 12.5 24.4475 12.5 25C12.5 25.5525 12.7195 26.0824 13.1102 26.4731C13.5009 26.8638 14.0308 27.0833 14.5833 27.0833H47.9167C48.4692 27.0833 48.9991 26.8638 49.3898 26.4731C49.7805 26.0824 50 25.5525 50 25C50 24.4475 49.7805 23.9176 49.3898 23.5269C48.9991 23.1362 48.4692 22.9167 47.9167 22.9167Z" fill="white"/>
<path d="M47.9167 37.5H14.5833C14.0308 37.5 13.5009 37.7195 13.1102 38.1102C12.7195 38.5009 12.5 39.0308 12.5 39.5833C12.5 40.1359 12.7195 40.6658 13.1102 41.0565C13.5009 41.4472 14.0308 41.6667 14.5833 41.6667H47.9167C48.4692 41.6667 48.9991 41.4472 49.3898 41.0565C49.7805 40.6658 50 40.1359 50 39.5833C50 39.0308 49.7805 38.5009 49.3898 38.1102C48.9991 37.7195 48.4692 37.5 47.9167 37.5Z" fill="white"/>
<path d="M4.16667 14.5833C6.46785 14.5833 8.33333 12.7179 8.33333 10.4167C8.33333 8.11548 6.46785 6.25 4.16667 6.25C1.86548 6.25 0 8.11548 0 10.4167C0 12.7179 1.86548 14.5833 4.16667 14.5833Z" fill="white"/>
<path d="M4.16667 29.1667C6.46785 29.1667 8.33333 27.3012 8.33333 25C8.33333 22.6988 6.46785 20.8333 4.16667 20.8333C1.86548 20.8333 0 22.6988 0 25C0 27.3012 1.86548 29.1667 4.16667 29.1667Z" fill="white"/>
<path d="M4.16667 43.75C6.46785 43.75 8.33333 41.8845 8.33333 39.5833C8.33333 37.2821 6.46785 35.4167 4.16667 35.4167C1.86548 35.4167 0 37.2821 0 39.5833C0 41.8845 1.86548 43.75 4.16667 43.75Z" fill="white"/>
</g>
<defs>
<clipPath id="clip0_3_59">
<rect width="50" height="50" fill="white"/>
</clipPath>
</defs>
</svg>
