<svg width="350" height="350" viewBox="0 0 350 350" fill="none" xmlns="http://www.w3.org/2000/svg">
<g clip-path="url(#clip0_14_15)">
<path d="M212.474 351.465C187.966 351.446 163.735 346.29 141.344 336.327C118.953 326.365 98.8995 311.819 82.4777 293.627C65.9319 275.415 53.4484 253.892 45.8553 230.486C38.2622 207.081 35.7332 182.328 38.436 157.871C42.7936 119.809 59.3981 84.1922 85.7497 56.3836C112.101 28.5749 146.774 10.0794 184.546 3.68158C208.965 -0.0900402 233.884 0.925352 257.915 6.67116C264.208 8.28785 269.954 11.5566 274.559 16.1393C279.164 20.7219 282.461 26.4519 284.109 32.7363C285.757 39.0207 285.695 45.6313 283.931 51.884C282.167 58.1366 278.763 63.8042 274.074 68.3003C207.574 129.055 213.349 223.525 285.842 278.446C290.968 282.469 294.922 287.792 297.293 293.862C299.663 299.931 300.364 306.525 299.322 312.957C298.279 319.389 295.532 325.425 291.366 330.435C287.2 335.445 281.768 339.248 275.634 341.446C255.244 348.108 233.925 351.49 212.474 351.465ZM213.582 30.6316C205.394 30.6119 197.217 31.2311 189.126 32.4837C157.677 37.8024 128.807 53.1926 106.861 76.3377C84.9155 99.4827 71.0818 129.13 67.4423 160.817C65.1673 181.234 67.2639 201.902 73.5927 221.447C79.9215 240.991 90.3375 258.965 104.149 274.173C124.366 295.752 150.411 310.999 179.124 318.066C207.837 325.133 237.984 323.716 265.907 313.986C267.111 313.535 268.174 312.774 268.988 311.78C269.803 310.786 270.341 309.594 270.546 308.325C270.752 307.056 270.619 305.756 270.16 304.555C269.701 303.354 268.933 302.296 267.934 301.488C181.469 236.184 174.601 119.4 254.109 47.0232C255.021 46.1761 255.679 45.0914 256.009 43.8909C256.339 42.6904 256.327 41.4217 255.976 40.2274C255.673 38.9599 255.029 37.7994 254.114 36.8714C253.199 35.9435 252.047 35.2835 250.784 34.9628C238.603 32.0247 226.112 30.5704 213.582 30.6316Z" fill="white"/>
</g>
<defs>
<clipPath id="clip0_14_15">
<rect width="350" height="350" fill="white"/>
</clipPath>
</defs>
</svg>
