<svg width="184" height="186" viewBox="0 0 184 186" fill="none" xmlns="http://www.w3.org/2000/svg">
<path d="M92.5 31.5L162.5 70.5V141.5L91.5 98.3036L92.5 31.5Z" fill="#C67777"/>
<path d="M92.5 31.5L162.5 70.5V141.5L91.5 98.3036L92.5 31.5Z" fill="#C67777"/>
<path d="M92.5 31.5L162.5 70.5L92.5 112L21.5 70.5L92.5 31.5Z" fill="#253848"/>
<path d="M92.5 31.5L162.5 70.5L92.5 112L21.5 70.5L92.5 31.5Z" fill="#253848"/>
<path d="M92.5 31.5L162.5 70.5L92.5 112L21.5 70.5L92.5 31.5Z" fill="#253848"/>
<path d="M21.5 70.5L92.5 112V185.5L21.5 141.5V107.5V70.5Z" fill="#3F607C"/>
<path d="M21.5 70.5L92.5 112V185.5L21.5 141.5V107.5V70.5Z" fill="#3F607C"/>
<path d="M162.5 70.5L92.5 112V185.5L162.5 141.5V107V70.5Z" fill="#35536F"/>
<path d="M162.5 70.5L92.5 112V185.5L162.5 141.5V107V70.5Z" fill="#35536F"/>
<path d="M0 37L74 1.5L92.5 31.5L22 70.5L0 37Z" fill="#3B5B77"/>
<path d="M183.5 37L110.7 1.5L92.5 31.5L162.5 70.5L183.5 37Z" fill="#466886"/>
<path d="M178.5 67.5753L107 110.5L93 112L162.095 70.5L178.5 67.5753Z" fill="#466886"/>
<path d="M4 102L73.9 143.5L92.5 111.761L21.6189 70.5L4 102Z" fill="#466886"/>
</svg>
