<?xml version="1.0"?>
<svg xmlns="http://www.w3.org/2000/svg" xmlns:xlink="http://www.w3.org/1999/xlink" xmlns:svgjs="http://svgjs.com/svgjs" version="1.1" width="512" height="512" x="0" y="0" viewBox="0 0 24 24" style="enable-background:new 0 0 512 512" xml:space="preserve"><g><path xmlns="http://www.w3.org/2000/svg" d="M17.321,0H6.681A2.994,2.994,0,0,0,3.726,2.483L-.039,24h24.1L20.276,2.48A3,3,0,0,0,17.321,0ZM2.341,22,5.7,2.828A1,1,0,0,1,6.681,2h10.64a1,1,0,0,1,.985.827L21.679,22ZM11,4h2V8H11Zm0,6h2v4H11Zm0,6h2v4H11Z" fill="#ffffff" data-original="#000000"/></g></svg>
