<svg width="350" height="351" viewBox="0 0 350 351" fill="none" xmlns="http://www.w3.org/2000/svg">
<g clip-path="url(#clip0_14_17)">
<path d="M335.417 160.544H275.917C274.78 152.509 272.68 144.64 269.66 137.108L321.096 107.3C322.815 106.375 324.331 105.114 325.553 103.592C326.776 102.07 327.681 100.319 328.214 98.4408C328.747 96.5628 328.898 94.597 328.657 92.6597C328.416 90.7225 327.789 88.8533 326.813 87.163C325.836 85.4726 324.53 83.9956 322.972 82.8193C321.414 81.643 319.636 80.7915 317.743 80.3153C315.85 79.839 313.88 79.7477 311.951 80.0467C310.022 80.3458 308.173 81.0291 306.512 82.0561L255.033 111.908C250.112 105.692 244.489 100.064 238.277 95.1374L268.115 43.6436C269.911 40.3048 270.337 36.3975 269.302 32.75C268.266 29.1026 265.851 26.0019 262.568 24.1052C259.285 22.2086 255.392 21.6651 251.715 22.5901C248.038 23.5152 244.866 25.8359 242.871 29.0603L213.019 80.4665C205.488 77.4438 197.619 75.3431 189.583 74.2103V14.7103C189.583 10.8425 188.047 7.13322 185.312 4.39831C182.577 1.66341 178.868 0.126953 175 0.126953C171.132 0.126953 167.423 1.66341 164.688 4.39831C161.953 7.13322 160.417 10.8425 160.417 14.7103V74.2103C152.381 75.3431 144.512 77.4438 136.981 80.4665L107.173 29.0311C105.178 25.8067 102.006 23.486 98.3289 22.561C94.6519 21.636 90.7592 22.1794 87.4761 24.076C84.193 25.9727 81.7776 29.0734 80.7421 32.7209C79.7066 36.3683 80.1324 40.2756 81.9292 43.6145L111.767 95.1374C105.554 100.064 99.9316 105.692 95.0104 111.908L43.5312 82.0561C41.8711 81.0291 40.0217 80.3458 38.0926 80.0467C36.1635 79.7477 34.194 79.839 32.3009 80.3153C30.4077 80.7915 28.6295 81.643 27.0715 82.8193C25.5135 83.9956 24.2076 85.4726 23.2311 87.163C22.2546 88.8533 21.6274 90.7225 21.3867 92.6597C21.146 94.597 21.2966 96.5628 21.8298 98.4408C22.3629 100.319 23.2677 102.07 24.4904 103.592C25.7131 105.114 27.2289 106.375 28.9479 107.3L80.3396 137.108C77.3201 144.64 75.2195 152.509 74.0833 160.544H14.5833C10.7156 160.544 7.00626 162.08 4.27136 164.815C1.53645 167.55 0 171.259 0 175.127C0 178.995 1.53645 182.704 4.27136 185.439C7.00626 188.174 10.7156 189.71 14.5833 189.71H74.0833C75.2195 197.745 77.3201 205.614 80.3396 213.146L28.9042 242.954C27.1851 243.879 25.6693 245.14 24.4466 246.662C23.2239 248.183 22.3192 249.935 21.786 251.813C21.2529 253.691 21.1022 255.657 21.3429 257.594C21.5836 259.531 22.2108 261.401 23.1873 263.091C24.1638 264.781 25.4698 266.258 27.0278 267.435C28.5857 268.611 30.364 269.462 32.2571 269.939C34.1503 270.415 36.1198 270.506 38.0489 270.207C39.978 269.908 41.8274 269.225 43.4875 268.198L94.9667 238.346C99.8879 244.562 105.511 250.19 111.723 255.117L81.9292 306.61C80.1324 309.949 79.7066 313.856 80.7421 317.504C81.7776 321.151 84.193 324.252 87.4761 326.149C90.7592 328.045 94.6519 328.589 98.3289 327.664C102.006 326.739 105.178 324.418 107.173 321.194L136.981 269.758C144.513 272.785 152.381 274.895 160.417 276.044V335.544C160.417 339.411 161.953 343.121 164.688 345.856C167.423 348.591 171.132 350.127 175 350.127C178.868 350.127 182.577 348.591 185.312 345.856C188.047 343.121 189.583 339.411 189.583 335.544V276.044C197.617 274.904 205.486 272.804 213.019 269.787L242.827 321.223C244.822 324.447 247.994 326.768 251.671 327.693C255.348 328.618 259.241 328.074 262.524 326.178C265.807 324.281 268.222 321.18 269.258 317.533C270.293 313.886 269.868 309.978 268.071 306.639L238.233 255.146C244.446 250.219 250.068 244.592 254.99 238.375L306.469 268.227C308.129 269.254 309.978 269.937 311.907 270.236C313.836 270.535 315.806 270.444 317.699 269.968C319.592 269.492 321.371 268.64 322.928 267.464C324.486 266.288 325.792 264.81 326.769 263.12C327.745 261.43 328.373 259.561 328.613 257.623C328.854 255.686 328.703 253.72 328.17 251.842C327.637 249.964 326.732 248.213 325.51 246.691C324.287 245.169 322.771 243.908 321.052 242.983L269.617 213.175C272.653 205.635 274.769 197.757 275.917 189.71H335.417C339.284 189.71 342.994 188.174 345.729 185.439C348.464 182.704 350 178.995 350 175.127C350 171.259 348.464 167.55 345.729 164.815C342.994 162.08 339.284 160.544 335.417 160.544ZM175 248.044C78.6333 244.981 78.6625 105.258 175 102.21C271.367 105.273 271.337 244.996 175 248.044Z" fill="white"/>
</g>
<defs>
<clipPath id="clip0_14_17">
<rect width="350" height="350" fill="white" transform="translate(0 0.126953)"/>
</clipPath>
</defs>
</svg>
