<svg width="2175" height="69" viewBox="0 0 2175 69" fill="none" xmlns="http://www.w3.org/2000/svg">
<g clip-path="url(#clip0_202_347)">
<line x1="75.5" y1="74.5" x2="75.5" y2="-5.5" stroke="white" stroke-width="5"/>
<line x1="153.5" y1="74.5" x2="153.5" y2="-5.5" stroke="white" stroke-width="5"/>
<line x1="231.5" y1="74.5" x2="231.5" y2="-5.5" stroke="white" stroke-width="5"/>
<line x1="309.5" y1="74.5" x2="309.5" y2="-5.5" stroke="white" stroke-width="5"/>
<line x1="387.5" y1="74.5" x2="387.5" y2="-5.5" stroke="white" stroke-width="5"/>
<line x1="465.5" y1="74.5" x2="465.5" y2="-5.5" stroke="white" stroke-width="5"/>
<line x1="543.5" y1="74.5" x2="543.5" y2="-5.5" stroke="white" stroke-width="5"/>
<line x1="621.5" y1="74.5" x2="621.5" y2="-5.5" stroke="white" stroke-width="5"/>
<line x1="699.5" y1="74.5" x2="699.5" y2="-5.5" stroke="white" stroke-width="5"/>
<line x1="777.5" y1="74.5" x2="777.5" y2="-5.5" stroke="white" stroke-width="5"/>
<line x1="855.5" y1="74.5" x2="855.5" y2="-5.5" stroke="white" stroke-width="5"/>
<line x1="933.5" y1="74.5" x2="933.5" y2="-5.5" stroke="white" stroke-width="5"/>
<line x1="1011.5" y1="74.5" x2="1011.5" y2="-5.5" stroke="white" stroke-width="5"/>
<line x1="1089.5" y1="74.5" x2="1089.5" y2="-5.5" stroke="white" stroke-width="5"/>
<line x1="1167.5" y1="74.5" x2="1167.5" y2="-5.5" stroke="white" stroke-width="5"/>
<line x1="1245.5" y1="74.5" x2="1245.5" y2="-5.5" stroke="white" stroke-width="5"/>
<line x1="1323.5" y1="74.5" x2="1323.5" y2="-5.5" stroke="white" stroke-width="5"/>
<line x1="1401.5" y1="74.5" x2="1401.5" y2="-5.5" stroke="white" stroke-width="5"/>
<line x1="1479.5" y1="74.5" x2="1479.5" y2="-5.5" stroke="white" stroke-width="5"/>
<line x1="1557.5" y1="74.5" x2="1557.5" y2="-5.5" stroke="white" stroke-width="5"/>
<line x1="1635.5" y1="74.5" x2="1635.5" y2="-5.5" stroke="white" stroke-width="5"/>
<line x1="1713.5" y1="74.5" x2="1713.5" y2="-5.5" stroke="white" stroke-width="5"/>
<line x1="1791.5" y1="74.5" x2="1791.5" y2="-5.5" stroke="white" stroke-width="5"/>
<line x1="1869.5" y1="74.5" x2="1869.5" y2="-5.5" stroke="white" stroke-width="5"/>
<line x1="1947.5" y1="74.5" x2="1947.5" y2="-5.5" stroke="white" stroke-width="5"/>
<line x1="2025.5" y1="74.5" x2="2025.5" y2="-5.5" stroke="white" stroke-width="5"/>
<line x1="2103.5" y1="74.5" x2="2103.5" y2="-5.5" stroke="white" stroke-width="5"/>
</g>
<defs>
<clipPath id="clip0_202_347">
<rect width="2175" height="80" fill="white" transform="translate(0 -5.5)"/>
</clipPath>
</defs>
</svg>
