<svg width="512" height="512" viewBox="0 0 512 512" fill="none" xmlns="http://www.w3.org/2000/svg">
<g clip-path="url(#clip0_16_49)">
<path d="M256 341.333C239.123 341.333 222.624 336.329 208.591 326.952C194.558 317.576 183.621 304.248 177.162 288.656C170.704 273.063 169.014 255.905 172.306 239.352C175.599 222.799 183.726 207.594 195.66 195.66C207.594 183.726 222.799 175.599 239.352 172.306C255.905 169.014 273.063 170.704 288.656 177.162C304.248 183.621 317.576 194.558 326.952 208.591C336.329 222.624 341.333 239.123 341.333 256C341.333 278.632 332.343 300.337 316.34 316.34C300.337 332.343 278.632 341.333 256 341.333ZM256 213.333C247.561 213.333 239.312 215.836 232.296 220.524C225.279 225.212 219.81 231.876 216.581 239.672C213.352 247.469 212.507 256.047 214.153 264.324C215.799 272.6 219.863 280.203 225.83 286.17C231.797 292.137 239.4 296.201 247.676 297.847C255.953 299.493 264.532 298.648 272.328 295.419C280.124 292.19 286.788 286.721 291.476 279.704C296.164 272.688 298.667 264.439 298.667 256C298.667 244.684 294.171 233.832 286.17 225.83C278.168 217.829 267.316 213.333 256 213.333ZM384 490.667C384 456.719 370.514 424.162 346.51 400.157C322.505 376.152 289.948 362.667 256 362.667C222.052 362.667 189.495 376.152 165.49 400.157C141.486 424.162 128 456.719 128 490.667C128 496.325 130.248 501.751 134.248 505.752C138.249 509.752 143.675 512 149.333 512C154.991 512 160.417 509.752 164.418 505.752C168.419 501.751 170.667 496.325 170.667 490.667C170.667 468.035 179.657 446.33 195.66 430.327C211.663 414.324 233.368 405.333 256 405.333C278.632 405.333 300.337 414.324 316.34 430.327C332.343 446.33 341.333 468.035 341.333 490.667C341.333 496.325 343.581 501.751 347.582 505.752C351.582 509.752 357.009 512 362.667 512C368.325 512 373.751 509.752 377.752 505.752C381.752 501.751 384 496.325 384 490.667ZM384 170.667C367.123 170.667 350.624 165.662 336.591 156.285C322.558 146.909 311.621 133.582 305.162 117.989C298.704 102.396 297.014 85.2387 300.306 68.6857C303.599 52.1326 311.726 36.9277 323.66 24.9936C335.594 13.0595 350.799 4.9323 367.352 1.63969C383.905 -1.65291 401.063 0.0369733 416.656 6.49565C432.248 12.9543 445.576 23.8917 454.952 37.9247C464.329 51.9577 469.333 68.456 469.333 85.3334C469.333 107.965 460.343 129.67 444.34 145.673C428.337 161.676 406.632 170.667 384 170.667ZM384 42.6667C375.561 42.6667 367.312 45.1691 360.296 49.8573C353.279 54.5456 347.81 61.2092 344.581 69.0056C341.352 76.8019 340.507 85.3807 342.153 93.6572C343.799 101.934 347.863 109.536 353.83 115.503C359.797 121.47 367.4 125.534 375.676 127.18C383.953 128.827 392.532 127.982 400.328 124.752C408.124 121.523 414.788 116.054 419.476 109.038C424.164 102.021 426.667 93.772 426.667 85.3334C426.667 74.0175 422.171 63.165 414.17 55.1635C406.168 47.1619 395.316 42.6667 384 42.6667ZM512 320C511.966 286.063 498.47 253.525 474.472 229.528C450.475 205.53 417.937 192.034 384 192C378.342 192 372.916 194.248 368.915 198.248C364.914 202.249 362.667 207.675 362.667 213.333C362.667 218.991 364.914 224.418 368.915 228.418C372.916 232.419 378.342 234.667 384 234.667C406.632 234.667 428.337 243.657 444.34 259.66C460.343 275.663 469.333 297.368 469.333 320C469.333 325.658 471.581 331.084 475.582 335.085C479.582 339.086 485.009 341.333 490.667 341.333C496.325 341.333 501.751 339.086 505.752 335.085C509.752 331.084 512 325.658 512 320ZM128 170.667C111.123 170.667 94.6243 165.662 80.5913 156.285C66.5583 146.909 55.621 133.582 49.1623 117.989C42.7036 102.396 41.0137 85.2387 44.3063 68.6857C47.5989 52.1326 55.7261 36.9277 67.6602 24.9936C79.5943 13.0595 94.7993 4.9323 111.352 1.63969C127.905 -1.65291 145.063 0.0369733 160.656 6.49565C176.248 12.9543 189.576 23.8917 198.952 37.9247C208.329 51.9577 213.333 68.456 213.333 85.3334C213.333 107.965 204.343 129.67 188.34 145.673C172.337 161.676 150.632 170.667 128 170.667ZM128 42.6667C119.561 42.6667 111.312 45.1691 104.296 49.8573C97.2792 54.5456 91.8105 61.2092 88.5811 69.0056C85.3518 76.8019 84.5069 85.3807 86.1532 93.6572C87.7995 101.934 91.8631 109.536 97.8301 115.503C103.797 121.47 111.4 125.534 119.676 127.18C127.953 128.827 136.532 127.982 144.328 124.752C152.124 121.523 158.788 116.054 163.476 109.038C168.164 102.021 170.667 93.772 170.667 85.3334C170.667 74.0175 166.171 63.165 158.17 55.1635C150.168 47.1619 139.316 42.6667 128 42.6667ZM42.6667 320C42.6667 297.368 51.6571 275.663 67.6602 259.66C83.6633 243.657 105.368 234.667 128 234.667C133.658 234.667 139.084 232.419 143.085 228.418C147.086 224.418 149.333 218.991 149.333 213.333C149.333 207.675 147.086 202.249 143.085 198.248C139.084 194.248 133.658 192 128 192C94.0627 192.034 61.5251 205.53 37.5278 229.528C13.5304 253.525 0.0338865 286.063 0 320C0 325.658 2.24761 331.084 6.24839 335.085C10.2492 339.086 15.6754 341.333 21.3333 341.333C26.9913 341.333 32.4175 339.086 36.4183 335.085C40.4191 331.084 42.6667 325.658 42.6667 320Z" fill="white"/>
</g>
<defs>
<clipPath id="clip0_16_49">
<rect width="512" height="512" fill="white"/>
</clipPath>
</defs>
</svg>
