<svg width="512" height="512" viewBox="0 0 512 512" fill="none" xmlns="http://www.w3.org/2000/svg">
<path d="M406.635 167.552C403.663 164.578 400.134 162.219 396.251 160.61C392.367 159.001 388.204 158.172 384 158.172C379.796 158.172 375.633 159.001 371.749 160.61C367.866 162.219 364.337 164.578 361.365 167.552L263.531 265.365C261.53 267.365 258.818 268.488 255.989 268.488C253.161 268.488 250.448 267.365 248.448 265.365L150.635 167.552C144.634 161.549 136.495 158.175 128.008 158.173C119.52 158.171 111.379 161.541 105.376 167.541C99.3729 173.542 95.9993 181.681 95.9973 190.168C95.9953 198.656 99.3651 206.797 105.365 212.8L203.2 310.635C210.134 317.569 218.365 323.069 227.425 326.822C236.484 330.575 246.194 332.507 256 332.507C265.806 332.507 275.516 330.575 284.575 326.822C293.635 323.069 301.866 317.569 308.8 310.635L406.635 212.8C412.634 206.799 416.004 198.661 416.004 190.176C416.004 181.691 412.634 173.553 406.635 167.552Z" fill="white"/>
</svg>
